<svg xmlns="http://www.w3.org/2000/svg" viewBox="0 0 17 16" width="17" height="16">
	<style>
		tspan { white-space:pre }
		.shp0 { fill: #008ed6 } 
	</style>
	<g id="About long">
		<path id="Speedometer" class="shp0" d="M12.22,15.08c2.38,-1.47 3.8,-4.01 3.8,-6.81c0,-4.41 -3.58,-7.99 -7.99,-7.99c-4.41,0 -7.99,3.58 -7.99,7.99c0,2.77 1.4,5.3 3.75,6.77c0.23,0.15 0.54,0.08 0.69,-0.16c0.15,-0.23 0.08,-0.54 -0.16,-0.69c-2.05,-1.29 -3.28,-3.5 -3.28,-5.93c0,-3.85 3.14,-6.99 6.99,-6.99c3.85,0 6.99,3.14 6.99,6.99c0,2.44 -1.24,4.67 -3.33,5.95c-0.24,0.15 -0.31,0.45 -0.16,0.69c0.09,0.15 0.26,0.24 0.43,0.24c0.09,0 0.18,-0.02 0.26,-0.07zM15.87,8.28c0,-0.28 -0.22,-0.5 -0.5,-0.5h-0.91c-0.28,0 -0.5,0.22 -0.5,0.5c0,0.28 0.22,0.5 0.5,0.5h0.91c0.28,0 0.5,-0.22 0.5,-0.5zM2.12,8.27c0,-0.28 -0.22,-0.5 -0.5,-0.5h-0.91c-0.28,0 -0.5,0.22 -0.5,0.5c0,0.28 0.22,0.5 0.5,0.5h0.91c0.28,0 0.5,-0.22 0.5,-0.5zM8.52,1.93v-0.91c0,-0.28 -0.22,-0.5 -0.5,-0.5c-0.28,0 -0.5,0.22 -0.5,0.5v0.91c0,0.28 0.22,0.5 0.5,0.5c0.28,0 0.5,-0.22 0.5,-0.5zM5.1,3.14c0.24,-0.14 0.32,-0.44 0.18,-0.68l-0.46,-0.79c-0.14,-0.24 -0.45,-0.32 -0.68,-0.18c-0.24,0.14 -0.32,0.44 -0.18,0.68l0.46,0.79c0.09,0.16 0.26,0.25 0.43,0.25c0.08,0 0.17,-0.02 0.25,-0.07zM14.82,12.16c0.14,-0.24 0.06,-0.54 -0.18,-0.68l-0.79,-0.46c-0.24,-0.14 -0.55,-0.06 -0.68,0.18c-0.14,0.24 -0.06,0.54 0.18,0.68l0.79,0.46c0.08,0.05 0.16,0.07 0.25,0.07c0.17,0 0.34,-0.09 0.43,-0.25zM2.94,5.3c0.14,-0.24 0.06,-0.54 -0.18,-0.68l-0.79,-0.46c-0.24,-0.14 -0.54,-0.06 -0.68,0.18c-0.14,0.24 -0.06,0.54 0.18,0.68l0.79,0.46c0.08,0.05 0.16,0.07 0.25,0.07c0.17,0 0.34,-0.09 0.43,-0.25zM1.97,12.34l0.79,-0.46c0.24,-0.14 0.32,-0.44 0.18,-0.68c-0.14,-0.24 -0.44,-0.32 -0.68,-0.18l-0.79,0.46c-0.24,0.14 -0.32,0.44 -0.18,0.68c0.09,0.16 0.26,0.25 0.43,0.25c0.08,0 0.17,-0.02 0.25,-0.07zM13.84,5.48l0.79,-0.46c0.24,-0.14 0.32,-0.44 0.18,-0.68c-0.14,-0.24 -0.44,-0.32 -0.68,-0.18l-0.79,0.46c-0.24,0.14 -0.32,0.44 -0.18,0.68c0.09,0.16 0.26,0.25 0.43,0.25c0.08,0 0.17,-0.02 0.25,-0.07zM11.68,2.96l0.46,-0.79c0.14,-0.24 0.06,-0.54 -0.18,-0.68c-0.24,-0.14 -0.54,-0.06 -0.68,0.18l-0.46,0.79c-0.14,0.24 -0.06,0.54 0.18,0.68c0.08,0.05 0.16,0.07 0.25,0.07c0.17,0 0.34,-0.09 0.43,-0.25zM7.02,8.28c0,0.55 0.45,1 1,1c0.55,0 1,-0.45 1,-1c0,-0.55 -0.45,-1 -1,-1c-0.55,0 -1,0.45 -1,1zM11.22,5.85l-3.46,2c-0.24,0.14 -0.32,0.44 -0.18,0.68c0.14,0.24 0.44,0.32 0.68,0.18l3.46,-2c0.24,-0.14 0.32,-0.44 0.18,-0.68c-0.14,-0.24 -0.44,-0.32 -0.68,-0.18z" />
	</g>
</svg>