<svg xmlns="http://www.w3.org/2000/svg" viewBox="0 0 20 33" width="20" height="33">
	<style>
		tspan { white-space:pre }
		.shp0 { fill: #008ed6 } 
	</style>
	<g id="Contact us">
		<path id="Phone" class="shp0" d="M16 2C16.55 2 17 2.45 17 3L17 29C17 29.55 16.55 30 16 30L3.99 30C3.44 30 2.99 29.55 2.99 29L2.99 3C2.99 2.45 3.44 2 3.99 2L16 2M16 0L3.99 0C2.34 0 0.99 1.34 0.99 3L0.99 29C0.99 30.66 2.34 32 3.99 32L16 32C17.66 32 19 30.66 19 29L19 3C19 1.34 17.66 0 16 0L16 0ZM8 27C8 28.1 8.9 28.99 10 28.99C11.1 28.99 11.99 28.1 11.99 27C11.99 25.9 11.1 25.01 10 25.01C8.9 25.01 8 25.9 8 27ZM8 3L12 3C12.55 3 13 3.45 13 4C13 4.55 12.55 5 12 5L8 5C7.45 5 7 4.55 7 4C7 3.45 7.45 3 8 3Z" />
	</g>
</svg>