<svg xmlns="http://www.w3.org/2000/svg" viewBox="0 0 25 33" width="25" height="33">
	<style>
		tspan { white-space:pre }
		.shp0 { fill: #008ed6 } 
	</style>
	<g id="Contact us">
		<path id="Pointer" class="shp0" d="M12.13 2.99C18.95 2.99 22.01 8.11 22.01 13.19C22.01 17.67 18.82 23.61 12.53 30.85C12.49 30.88 12.44 30.92 12.4 30.96C12.35 30.92 12.3 30.88 12.26 30.85L11.74 30.25C7.63 25.54 2.01 19.09 2.01 13.19C2.01 7.66 6.64 2.99 12.13 2.99M12.13 0.99C5.57 0.99 0.01 6.58 0.01 13.19C0.01 20.12 6.45 27.21 10.78 32.19C10.8 32.21 11.5 32.99 12.36 32.99C12.36 32.99 12.43 32.99 12.44 32.99C13.3 32.99 13.99 32.21 14.01 32.19C18.07 27.52 24.01 19.81 24.01 13.19C24.01 6.58 19.68 0.99 12.13 0.99L12.13 0.99ZM12 9C14.21 9 16 10.79 16 13C16 15.21 14.25 17.04 12.05 17.04C9.84 17.04 8 15.21 8 13C8 10.79 9.79 9 12 9M12.05 7.04C8.73 7.04 6.05 9.73 6.05 13.04C6.05 16.36 8.73 19.04 12.05 19.04C15.36 19.04 18.05 16.36 18.05 13.04C18.05 9.73 15.36 7.04 12.05 7.04L12.05 7.04Z" />
	</g>
</svg>